<?xml version="1.0" encoding="utf-8"?>
<!-- Generator: Adobe Illustrator 25.2.0, SVG Export Plug-In . SVG Version: 6.00 Build 0)  -->
<svg version="1.1" id="_x31__1_" xmlns="http://www.w3.org/2000/svg" xmlns:xlink="http://www.w3.org/1999/xlink" x="0px" y="0px"
	 viewBox="0 0 128 128" style="enable-background:new 0 0 128 128;" xml:space="preserve">
<style type="text/css">
	.st0{fill:#4B9294;}
	.st1{fill:#FFFFFF;}
</style>
<g id="Эллипс_1">
	<g>
		<circle class="st0" cx="64" cy="64" r="64"/>
	</g>
</g>
<g id="Эллипс_2_копия_3">
	<g>
		<path class="st1" d="M64,5C31.42,5,5,31.42,5,64s26.42,59,59,59s59-26.42,59-59S96.58,5,64,5z M64,120C33.07,120,8,94.93,8,64
			S33.07,8,64,8s56,25.07,56,56S94.93,120,64,120z"/>
	</g>
</g>
<g id="Прямоугольник_x2C__скругл._углы_3">
	<g>
		<path class="st1" d="M64,26c-1.66,0-4,1.34-4,3v71c0,1.66,2.34,3,4,3s4-1.34,4-3V29C68,27.34,65.66,26,64,26z"/>
	</g>
</g>
<g id="Прямоугольник_x2C__скругл._углы_3_копия">
	<g>
		<path class="st1" d="M100,60H29c-1.66,0-3,2.34-3,4s1.34,4,3,4h71c1.66,0,3-2.34,3-4S101.66,60,100,60z"/>
	</g>
</g>
</svg>
