<svg width="128" height="128" viewBox="0 0 128 128" fill="none" xmlns="http://www.w3.org/2000/svg">
<g clip-path="url(#clip0_1_2)">
<path d="M64 128C99.3462 128 128 99.3462 128 64C128 28.6538 99.3462 0 64 0C28.6538 0 0 28.6538 0 64C0 99.3462 28.6538 128 64 128Z" fill="#808080"/>
<path d="M64 5C31.42 5 5 31.42 5 64C5 96.58 31.42 123 64 123C96.58 123 123 96.58 123 64C123 31.42 96.58 5 64 5ZM64 120C33.07 120 8 94.93 8 64C8 33.07 33.07 8 64 8C94.93 8 120 33.07 120 64C120 94.93 94.93 120 64 120Z" fill="white"/>
<path d="M64 26C62.34 26 60 27.34 60 29V100C60 101.66 62.34 103 64 103C65.66 103 68 101.66 68 100V29C68 27.34 65.66 26 64 26Z" fill="white"/>
<path d="M100 60H29C27.34 60 26 62.34 26 64C26 65.66 27.34 68 29 68H100C101.66 68 103 65.66 103 64C103 62.34 101.66 60 100 60Z" fill="white"/>
</g>
<defs>
<clipPath id="clip0_1_2">
<rect width="128" height="128" fill="white"/>
</clipPath>
</defs>
</svg>
