<svg width="128" height="128" viewBox="0 0 128 128" fill="none" xmlns="http://www.w3.org/2000/svg">
<g clip-path="url(#clip0_1_35)">
<path d="M64 128C99.3462 128 128 99.3462 128 64C128 28.6538 99.3462 0 64 0C28.6538 0 0 28.6538 0 64C0 99.3462 28.6538 128 64 128Z" fill="#004C5D"/>
<path d="M64 5C31.42 5 5 31.42 5 64C5 96.58 31.42 123 64 123C96.58 123 123 96.58 123 64C123 31.42 96.58 5 64 5ZM64 120C33.07 120 8 94.93 8 64C8 33.07 33.07 8 64 8C94.93 8 120 33.07 120 64C120 94.93 94.93 120 64 120Z" fill="white"/>
<path d="M91.22 37.28C90.05 36.11 87.44 35.4 86.27 36.57L36.07 86.77C34.9 87.94 35.61 90.55 36.78 91.72C37.95 92.89 40.56 93.6 41.73 92.43L91.93 42.23C93.1 41.05 92.4 38.45 91.22 37.28Z" fill="white"/>
<path d="M92.43 86.27L42.23 36.07C41.06 34.9 38.45 35.61 37.28 36.78C36.11 37.95 35.4 40.56 36.57 41.73L86.77 91.93C87.94 93.1 90.55 92.39 91.72 91.22C92.9 90.05 93.6 87.45 92.43 86.27Z" fill="white"/>
</g>
<defs>
<clipPath id="clip0_1_35">
<rect width="128" height="128" fill="white"/>
</clipPath>
</defs>
</svg>
