<?xml version="1.0" encoding="utf-8"?>
<!-- Generator: Adobe Illustrator 25.2.0, SVG Export Plug-In . SVG Version: 6.00 Build 0)  -->
<svg version="1.1" id="_x34__1_" xmlns="http://www.w3.org/2000/svg" xmlns:xlink="http://www.w3.org/1999/xlink" x="0px" y="0px"
	 viewBox="0 0 128 128" style="enable-background:new 0 0 128 128;" xml:space="preserve">
<style type="text/css">
	.st0{fill:#4B9294;}
	.st1{fill:#FFFFFF;}
</style>
<g id="Эллипс_1">
	<g>
		<circle class="st0" cx="64" cy="64" r="64"/>
	</g>
</g>
<g id="Эллипс_2">
	<g>
		<path class="st1" d="M64,5C31.42,5,5,31.42,5,64s26.42,59,59,59s59-26.42,59-59S96.58,5,64,5z M64,120C33.07,120,8,94.93,8,64
			S33.07,8,64,8s56,25.07,56,56S94.93,120,64,120z"/>
	</g>
</g>
<g id="Прямоугольник_x2C__скругл._углы_3">
	<g>
		<path class="st1" d="M91.22,37.28c-1.17-1.17-3.78-1.88-4.95-0.71l-50.2,50.2c-1.17,1.17-0.46,3.78,0.71,4.95
			c1.17,1.17,3.78,1.88,4.95,0.71l50.2-50.2C93.1,41.05,92.4,38.45,91.22,37.28z"/>
	</g>
</g>
<g id="Прямоугольник_x2C__скругл._углы_3_копия">
	<g>
		<path class="st1" d="M92.43,86.27l-50.2-50.2c-1.17-1.17-3.78-0.46-4.95,0.71s-1.88,3.78-0.71,4.95l50.2,50.2
			c1.17,1.17,3.78,0.46,4.95-0.71C92.9,90.05,93.6,87.45,92.43,86.27z"/>
	</g>
</g>
</svg>
