<svg width="128" height="128" viewBox="0 0 128 128" fill="none" xmlns="http://www.w3.org/2000/svg">
<g clip-path="url(#clip0_1_25)">
<path d="M64 128C99.3462 128 128 99.3462 128 64C128 28.6538 99.3462 0 64 0C28.6538 0 0 28.6538 0 64C0 99.3462 28.6538 128 64 128Z" fill="#808080"/>
<path d="M64 5C31.42 5 5 31.42 5 64C5 96.58 31.42 123 64 123C96.58 123 123 96.58 123 64C123 31.42 96.58 5 64 5ZM64 120C33.07 120 8 94.93 8 64C8 33.07 33.07 8 64 8C94.93 8 120 33.07 120 64C120 94.93 94.93 120 64 120Z" fill="white"/>
<path d="M99.53 35.84H79.54C79.65 34.58 79.6 33.12 79.6 31.56C79.6 26.83 75.72 23 70.93 23H57.07C52.28 23 48.4 26.83 48.4 31.56C48.4 33.12 48.35 34.58 48.46 35.84H28.47C26.56 35.84 25 37.37 25 39.26C25 41.15 26.55 42.68 28.47 42.68H31.08C31.08 42.81 31.06 42.94 31.08 43.08L36.3 93.4C36.3 93.41 36.3 93.41 36.3 93.42C36.28 93.61 36.27 93.81 36.27 94.01C36.27 94.01 35.59 106.04 44.07 105.99C45.42 105.98 46.61 105.95 47.67 105.91C47.91 105.96 48.15 105.99 48.41 105.99H82.21C82.61 105.99 82.98 105.91 83.33 105.79C83.52 105.91 83.72 105.99 83.94 105.99C92.42 106.12 92.61 94.01 92.61 94.01C92.61 92.12 91.06 90.59 89.14 90.59C87.23 90.59 85.67 92.12 85.67 94.01C85.67 94.01 85.81 97.48 84.8 98.29C84 98.93 82.87 99.1 82.12 99.15H48.4C48.12 99.15 47.85 99.19 47.59 99.25C46.65 99.32 45.09 99.27 44.06 98.29C43.63 97.88 43.19 94.01 43.19 94.01C43.19 93.89 43.15 93.77 43.13 93.66C43.18 93.37 43.21 93.07 43.18 92.76L38 42.68H89.55L86.98 79.19C86.85 81.08 88.29 82.71 90.2 82.84C92.11 82.97 93.77 81.55 93.9 79.66L96.48 42.95C96.49 42.85 96.47 42.76 96.47 42.67H99.53C101.44 42.67 103 41.14 103 39.25C103 37.37 101.45 35.84 99.53 35.84ZM73.25 35.84H54.75C54.58 35.29 54.47 34.73 54.47 34.13C54.47 30.82 57.19 28.14 60.54 28.14H67.47C70.82 28.14 73.54 30.82 73.54 34.13C73.53 34.72 73.42 35.29 73.25 35.84ZM46.67 52.09V88.88C46.67 90.77 48.22 92.3 50.14 92.3C52.05 92.3 53.61 90.77 53.61 88.88V52.09C53.61 50.2 52.06 48.67 50.14 48.67C48.22 48.67 46.67 50.2 46.67 52.09ZM60.53 52.09V88.88C60.53 90.77 62.08 92.3 64 92.3C65.92 92.3 67.47 90.77 67.47 88.88V52.09C67.47 50.2 65.92 48.67 64 48.67C62.08 48.67 60.53 50.2 60.53 52.09ZM75.27 52.09V88.88C75.27 90.77 76.82 92.3 78.74 92.3C80.66 92.3 82.21 90.77 82.21 88.88V52.09C82.21 50.2 80.66 48.67 78.74 48.67C76.82 48.67 75.27 50.2 75.27 52.09Z" fill="white"/>
</g>
<defs>
<clipPath id="clip0_1_25">
<rect width="128" height="128" fill="white"/>
</clipPath>
</defs>
</svg>
