<?xml version="1.0" encoding="utf-8"?>
<!-- Generator: Adobe Illustrator 25.2.0, SVG Export Plug-In . SVG Version: 6.00 Build 0)  -->
<svg version="1.1" id="_x33__1_" xmlns="http://www.w3.org/2000/svg" xmlns:xlink="http://www.w3.org/1999/xlink" x="0px" y="0px"
	 viewBox="0 0 128 128" style="enable-background:new 0 0 128 128;" xml:space="preserve">
<style type="text/css">
	.st0{fill:#4B9294;}
	.st1{fill:#FFFFFF;}
</style>
<g id="Эллипс_1">
	<g>
		<circle class="st0" cx="64" cy="64" r="64"/>
	</g>
</g>
<g id="Эллипс_2_копия">
	<g>
		<path class="st1" d="M64,5C31.42,5,5,31.42,5,64s26.42,59,59,59s59-26.42,59-59S96.58,5,64,5z M64,120C33.07,120,8,94.93,8,64
			S33.07,8,64,8s56,25.07,56,56S94.93,120,64,120z"/>
	</g>
</g>
<g id="Прямоугольник_x2C__скругл._углы_5_копия_2">
	<g>
		<path class="st1" d="M99.53,35.84H79.54c0.11-1.26,0.06-2.72,0.06-4.28c0-4.73-3.88-8.56-8.67-8.56H57.07
			c-4.79,0-8.67,3.83-8.67,8.56c0,1.56-0.05,3.02,0.06,4.28H28.47c-1.91,0-3.47,1.53-3.47,3.42c0,1.89,1.55,3.42,3.47,3.42h2.61
			c0,0.13-0.02,0.26,0,0.4l5.22,50.32c0,0.01,0,0.01,0,0.02c-0.02,0.19-0.03,0.39-0.03,0.59c0,0-0.68,12.03,7.8,11.98
			c1.35-0.01,2.54-0.04,3.6-0.08c0.24,0.05,0.48,0.08,0.74,0.08h33.8c0.4,0,0.77-0.08,1.12-0.2c0.19,0.12,0.39,0.2,0.61,0.2
			c8.48,0.13,8.67-11.98,8.67-11.98c0-1.89-1.55-3.42-3.47-3.42c-1.91,0-3.47,1.53-3.47,3.42c0,0,0.14,3.47-0.87,4.28
			c-0.8,0.64-1.93,0.81-2.68,0.86H48.4c-0.28,0-0.55,0.04-0.81,0.1c-0.94,0.07-2.5,0.02-3.53-0.96c-0.43-0.41-0.87-4.28-0.87-4.28
			c0-0.12-0.04-0.24-0.06-0.35c0.05-0.29,0.08-0.59,0.05-0.9L38,42.68h51.55l-2.57,36.51c-0.13,1.89,1.31,3.52,3.22,3.65
			s3.57-1.29,3.7-3.18l2.58-36.71c0.01-0.1-0.01-0.19-0.01-0.28h3.06c1.91,0,3.47-1.53,3.47-3.42
			C103,37.37,101.45,35.84,99.53,35.84z M73.25,35.84h-18.5c-0.17-0.55-0.28-1.11-0.28-1.71c0-3.31,2.72-5.99,6.07-5.99h6.93
			c3.35,0,6.07,2.68,6.07,5.99C73.53,34.72,73.42,35.29,73.25,35.84z M46.67,52.09v36.79c0,1.89,1.55,3.42,3.47,3.42
			c1.91,0,3.47-1.53,3.47-3.42V52.09c0-1.89-1.55-3.42-3.47-3.42C48.22,48.67,46.67,50.2,46.67,52.09z M60.53,52.09v36.79
			c0,1.89,1.55,3.42,3.47,3.42s3.47-1.53,3.47-3.42V52.09c0-1.89-1.55-3.42-3.47-3.42S60.53,50.2,60.53,52.09z M75.27,52.09v36.79
			c0,1.89,1.55,3.42,3.47,3.42s3.47-1.53,3.47-3.42V52.09c0-1.89-1.55-3.42-3.47-3.42S75.27,50.2,75.27,52.09z"/>
	</g>
</g>
</svg>
