<?xml version="1.0" encoding="utf-8"?>
<!-- Generator: Adobe Illustrator 25.2.0, SVG Export Plug-In . SVG Version: 6.00 Build 0)  -->
<svg version="1.1" id="Группа_1_1_" xmlns="http://www.w3.org/2000/svg" xmlns:xlink="http://www.w3.org/1999/xlink" x="0px"
	 y="0px" viewBox="0 0 576 96" style="enable-background:new 0 0 576 96;" xml:space="preserve">
<style type="text/css">
	.st0{fill:#003146;}
	.st1{fill:#009FA1;}
</style>
<g id="logo">
	<g>
		<path class="st0" d="M138.75,23.73c-4.32-2.19-10.92-3.29-19.81-3.29h-13.79v14.94l11.55,11.29V31.62h3.95
			c7.23,0,12.48,1.6,15.75,4.81c3.63,3.56,5.44,8.57,5.44,15.03c0,4.2-0.76,7.73-2.29,10.61c-1.52,2.87-3.48,4.92-5.88,6.13
			c-2.4,1.21-6.25,1.82-11.57,1.82h-5.4l-11.55,11.29h13.99c7.92,0,13.48-0.5,16.69-1.49c3.21-0.99,6.2-2.79,8.95-5.38
			c2.75-2.59,4.91-5.85,6.48-9.78c1.56-3.93,2.34-8.24,2.34-12.93c0-6.59-1.4-12.36-4.19-17.29
			C146.62,29.49,143.06,25.93,138.75,23.73z M193.35,19c-5.7,0-11.01,1.42-15.95,4.27c-4.94,2.85-8.82,6.71-11.64,11.58
			c-2.82,4.87-4.23,10.21-4.23,16.02c0,8.67,3.03,16.15,9.08,22.45c6.06,6.3,13.66,9.45,22.82,9.45c8.74,0,16.17-3.07,22.3-9.2
			c6.13-6.14,9.19-13.64,9.19-22.5c0-8.94-3.11-16.52-9.31-22.74C209.39,22.11,201.98,19,193.35,19z M207.5,65.64
			c-3.87,3.96-8.56,5.94-14.07,5.94c-4.87,0-9.18-1.53-12.95-4.58c-4.84-3.91-7.26-9.21-7.26-15.93c0-6.02,1.92-10.99,5.77-14.9
			c3.84-3.91,8.59-5.86,14.23-5.86c5.59,0,10.33,2,14.23,6c3.9,4.01,5.85,8.9,5.85,14.67C213.31,56.8,211.37,61.68,207.5,65.64z
			 M265.15,30.19c6.9,0,13.12,2.91,18.64,8.72l8.12-7.7c-3.37-3.9-7.39-6.91-12.04-9.02c-4.66-2.12-9.5-3.18-14.53-3.18
			c-5.92,0-11.44,1.43-16.56,4.29c-5.13,2.86-9.07,6.65-11.82,11.35c-2.75,4.7-4.13,10.08-4.13,16.14c0,9.36,3.02,17.02,9.06,23.01
			c6.04,5.99,13.8,8.98,23.28,8.98c5.14,0,9.71-0.85,13.72-2.54c4.01-1.69,8.26-4.73,12.77-9.1l-7.87-8.18
			c-3.34,3.3-6.41,5.58-9.19,6.84c-2.79,1.25-5.87,1.88-9.24,1.88c-3.95,0-7.54-0.9-10.77-2.69c-3.23-1.79-5.73-4.25-7.5-7.39
			c-1.77-3.14-2.65-6.74-2.65-10.78c0-5.82,1.99-10.7,5.98-14.67C254.42,32.17,259.33,30.19,265.15,30.19z M331.29,58.35
			c0,4.07-0.28,6.82-0.85,8.27c-0.57,1.44-1.59,2.63-3.07,3.57c-1.48,0.94-3.24,1.4-5.29,1.4c-1.93,0-3.59-0.42-4.95-1.26
			c-1.37-0.84-2.35-1.96-2.94-3.36c-0.59-1.4-0.89-3.79-0.89-7.17V20.53h-11.65v36.2c0,7.23,0.7,12.37,2.11,15.41
			c1.41,3.04,3.75,5.57,7.03,7.6c3.27,2.02,7.12,3.03,11.55,3.03c3.37,0,6.33-0.53,8.87-1.59c2.54-1.06,4.79-2.69,6.74-4.89
			c1.95-2.2,3.27-4.49,3.96-6.85c0.69-2.37,1.04-6.6,1.04-12.71v-36.2h-11.65V58.35z M402.04,20.53l-14.26,42.35l-14.14-42.35
			h-11.31l-10.56,60.71h11.32l6.7-38.34l12.84,38.34h10.23l12.95-38.34l6.54,38.34h11.23l-10.23-60.71H402.04z M432.86,81.24h33.29
			V69.9h-21.76V53.92h21.76v-11.1h-21.76V31.84h21.76V20.53h-33.29V81.24z M514.24,60.48l-26.1-39.95h-11.13v60.71h11.61V41.42
			l26.07,39.83h11.17V20.53h-11.61V60.48z M533.77,20.53v11.39h10.82v49.32h11.77V31.92h11.11V20.53H533.77z M62.3,61.04h26.49
			V50.39H62.3V61.04z M42.5,56.79l-5.09-7.01l21.11-28.75H42.64c-0.24,0-0.46,0.12-0.6,0.32c0,0-14.25,21.41-18.41,27.66v-0.12
			L10,69.39v11.92h13.64V52.4l10.68,15.87l8.55,12.69l0.23,0.35h17.22l-8.94-12.3L42.5,56.79z M10,21.03v20.32l13.52-20.32H10z"/>
	</g>
</g>
<g id="logo_x5F_1">
	<g>
		<polygon class="st1" points="104.36,46.06 104.36,70.22 116.87,58.13 		"/>
	</g>
</g>
</svg>
