<?xml version="1.0" encoding="utf-8"?>
<!-- Generator: Adobe Illustrator 25.2.0, SVG Export Plug-In . SVG Version: 6.00 Build 0)  -->
<svg version="1.1" id="_x32__1_" xmlns="http://www.w3.org/2000/svg" xmlns:xlink="http://www.w3.org/1999/xlink" x="0px" y="0px"
	 viewBox="0 0 128 128" style="enable-background:new 0 0 128 128;" xml:space="preserve">
<style type="text/css">
	.st0{fill:#4B9294;}
	.st1{fill:#FFFFFF;}
</style>
<g id="Эллипс_1">
	<g>
		<circle class="st0" cx="64" cy="64" r="64"/>
	</g>
</g>
<g id="Эллипс_2_копия_2">
	<g>
		<path class="st1" d="M64,5C31.42,5,5,31.42,5,64s26.42,59,59,59s59-26.42,59-59S96.58,5,64,5z M64,120C33.07,120,8,94.93,8,64
			S33.07,8,64,8s56,25.07,56,56S94.93,120,64,120z"/>
	</g>
</g>
<g id="Прямоугольник_x2C__скругл._углы_2">
	<g>
		<path class="st1" d="M99.3,28.65c-6.25-6.23-16.39-6.23-22.64,0l-41.5,41.39c-0.77,0.77-8.99,27.16-6.79,29.35
			c3.04,3.03,28.71-6.06,29.43-6.77c0,0,0.33-0.32,0.75-0.75c0.89-0.89,0-1.51,0-1.51c0.04-0.04-17.4-17.27-17.36-17.31l34.71-34.62
			l13.21,13.17c0.13,0.13,0.27,0.23,0.42,0.34L74.4,67.04L63.08,78.33c-1.25,1.25-1.25,3.27,0,4.52c1.23,1.22,3.2,1.24,4.45,0.06
			c0,0,0,0,0.01,0.01l0.07-0.07l11.32-11.29L99.3,51.23C105.55,45,105.55,34.89,99.3,28.65z M47.99,88.86
			c0.73,0.73-11.06,4.02-12.07,3.01s2.26-12.79,3.02-12.04C39.69,80.58,47.26,88.13,47.99,88.86z M94.7,46.71
			c-0.1-0.13-0.19-0.26-0.3-0.37L81.23,33.21c3.77-3.01,9.29-2.78,12.78,0.71C97.52,37.42,97.75,42.95,94.7,46.71z"/>
	</g>
</g>
</svg>
