<svg width="128" height="128" viewBox="0 0 128 128" fill="none" xmlns="http://www.w3.org/2000/svg">
<g clip-path="url(#clip0_1_15)">
<path d="M64 128C99.3462 128 128 99.3462 128 64C128 28.6538 99.3462 0 64 0C28.6538 0 0 28.6538 0 64C0 99.3462 28.6538 128 64 128Z" fill="#808080"/>
<path d="M64 5C31.42 5 5 31.42 5 64C5 96.58 31.42 123 64 123C96.58 123 123 96.58 123 64C123 31.42 96.58 5 64 5ZM64 120C33.07 120 8 94.93 8 64C8 33.07 33.07 8 64 8C94.93 8 120 33.07 120 64C120 94.93 94.93 120 64 120Z" fill="white"/>
<path d="M99.3 28.65C93.05 22.42 82.91 22.42 76.66 28.65L35.16 70.04C34.39 70.81 26.17 97.2 28.37 99.39C31.41 102.42 57.08 93.33 57.8 92.62C57.8 92.62 58.13 92.3 58.55 91.87C59.44 90.98 58.55 90.36 58.55 90.36C58.59 90.32 41.15 73.09 41.19 73.05L75.9 38.43L89.11 51.6C89.24 51.73 89.38 51.83 89.53 51.94L74.4 67.04L63.08 78.33C61.83 79.58 61.83 81.6 63.08 82.85C64.31 84.07 66.28 84.09 67.53 82.91C67.53 82.91 67.53 82.91 67.54 82.92L67.61 82.85L78.93 71.56L99.3 51.23C105.55 45 105.55 34.89 99.3 28.65ZM47.99 88.86C48.72 89.59 36.93 92.88 35.92 91.87C34.91 90.86 38.18 79.08 38.94 79.83C39.69 80.58 47.26 88.13 47.99 88.86ZM94.7 46.71C94.6 46.58 94.51 46.45 94.4 46.34L81.23 33.21C85 30.2 90.52 30.43 94.01 33.92C97.52 37.42 97.75 42.95 94.7 46.71Z" fill="white"/>
</g>
<defs>
<clipPath id="clip0_1_15">
<rect width="128" height="128" fill="white"/>
</clipPath>
</defs>
</svg>
